<?xml version="1.0" standalone="no"?>
<!DOCTYPE svg PUBLIC "-//W3C//DTD SVG 20010904//EN"
 "http://www.w3.org/TR/2001/REC-SVG-20010904/DTD/svg10.dtd">
<svg version="1.0" xmlns="http://www.w3.org/2000/svg"
 width="219.000000pt" height="91.000000pt" viewBox="0 0 219.000000 91.000000"
 preserveAspectRatio="xMidYMid meet">

<g transform="translate(0.000000,91.000000) scale(0.100000,-0.100000)"
fill="#000000" stroke="none">
<path d="M70 880 c0 -28 -3 -30 -35 -30 l-35 0 0 -395 0 -395 35 0 c32 0 35
-2 35 -30 l0 -30 1025 0 1025 0 0 30 c0 28 3 30 35 30 l35 0 0 395 0 395 -35
0 c-32 0 -35 2 -35 30 l0 30 -1025 0 -1025 0 0 -30z m2028 -7 c-3 -17 -59 -18
-1003 -18 -944 0 -1000 1 -1003 18 -3 16 50 17 1003 17 953 0 1006 -1 1003
-17z m-2028 -418 c0 -368 0 -375 -20 -375 -20 0 -20 7 -20 375 0 368 0 375 20
375 20 0 20 -7 20 -375z m2030 0 l0 -375 -1005 0 -1005 0 0 375 0 375 1005 0
1005 0 0 -375z m60 0 c0 -368 0 -375 -20 -375 -20 0 -20 7 -20 375 0 368 0
375 20 375 20 0 20 -7 20 -375z m-62 -418 c3 -16 -50 -17 -1002 -17 -832 0
-1006 2 -1006 13 0 8 3 17 7 20 3 4 454 6 1002 5 939 -3 996 -4 999 -21z"/>
<path d="M1384 745 c-16 -40 -18 -55 -4 -55 11 0 40 53 40 75 0 27 -21 16 -36
-20z"/>
<path d="M576 685 c-37 -37 -13 -77 50 -84 53 -7 76 -29 55 -55 -15 -18 -86
-22 -96 -6 -4 6 -11 8 -16 4 -21 -13 14 -34 58 -34 63 0 83 13 83 55 0 40 -20
55 -73 55 -43 0 -66 23 -46 46 10 12 25 15 61 12 33 -4 48 -2 45 6 -6 19 -102
19 -121 1z"/>
<path d="M802 677 c-17 -18 -22 -36 -22 -74 0 -44 4 -55 26 -72 29 -23 64 -27
95 -11 13 7 19 7 19 0 0 -5 5 -10 10 -10 6 0 10 30 10 70 0 62 -3 74 -25 95
-32 33 -83 34 -113 2z m98 -17 c28 -28 26 -75 -5 -105 -13 -14 -31 -25 -40
-25 -51 0 -77 104 -33 134 30 21 54 20 78 -4z"/>
<path d="M1040 680 c-16 -16 -20 -33 -20 -95 0 -43 4 -75 10 -75 6 0 10 29 10
68 0 75 16 102 58 102 34 0 52 -37 52 -107 0 -35 4 -63 10 -63 6 0 10 29 10
68 0 75 16 102 58 102 34 0 52 -37 52 -107 0 -35 4 -63 10 -63 6 0 10 31 10
73 0 64 -3 76 -23 95 -27 25 -73 29 -104 7 -18 -13 -22 -13 -33 0 -18 22 -76
19 -100 -5z"/>
<path d="M1496 685 c-37 -37 -13 -77 50 -84 53 -7 76 -29 55 -55 -15 -18 -86
-22 -96 -6 -4 6 -11 8 -16 4 -21 -13 14 -34 58 -34 63 0 83 13 83 55 0 40 -20
55 -73 55 -43 0 -66 23 -46 46 10 12 25 15 61 12 33 -4 48 -2 45 6 -6 19 -102
19 -121 1z"/>
<path d="M834 435 c-3 -8 -4 -58 -2 -111 3 -91 5 -97 31 -120 28 -24 77 -33
77 -14 0 6 -8 10 -18 10 -10 0 -28 7 -40 16 -19 13 -22 24 -22 75 0 56 1 59
25 59 14 0 25 5 25 10 0 6 -11 10 -25 10 -22 0 -25 4 -25 40 0 39 -15 54 -26
25z"/>
<path d="M636 355 c-37 -37 -13 -77 50 -84 53 -7 76 -29 55 -55 -15 -18 -86
-22 -96 -6 -4 6 -11 8 -16 4 -21 -13 14 -34 58 -34 63 0 83 13 83 55 0 40 -20
55 -73 55 -43 0 -66 23 -46 46 10 12 25 15 61 12 33 -4 48 -2 45 6 -6 19 -102
19 -121 1z"/>
<path d="M1025 345 c-19 -18 -25 -35 -25 -70 0 -57 32 -95 80 -95 49 0 80 38
80 98 0 38 -5 53 -23 70 -32 30 -81 29 -112 -3z m95 -15 c41 -41 14 -130 -40
-130 -32 0 -60 36 -60 75 0 39 28 75 60 75 11 0 29 -9 40 -20z"/>
<path d="M1265 345 c-22 -21 -25 -33 -25 -95 0 -40 4 -70 10 -70 6 0 10 28 10
65 0 70 20 105 60 105 11 0 20 5 20 10 0 20 -51 10 -75 -15z"/>
<path d="M1410 316 c0 -68 12 -100 45 -122 21 -14 32 -15 61 -6 32 9 34 9 34
-12 0 -50 -62 -73 -95 -36 -20 22 -35 26 -35 10 0 -23 41 -50 75 -50 42 0 72
26 80 72 10 55 2 191 -12 196 -10 3 -13 -13 -13 -58 0 -79 -11 -100 -53 -100
-48 0 -57 15 -57 92 0 54 -3 68 -15 68 -11 0 -15 -13 -15 -54z"/>
</g>
</svg>
