<?xml version="1.0" encoding="UTF-8" standalone="no"?>
<!-- Generator: Adobe Illustrator 12.0.1, SVG Export Plug-In . SVG Version: 6.00 Build 51448)  -->
<svg
   xmlns:dc="http://purl.org/dc/elements/1.1/"
   xmlns:cc="http://web.resource.org/cc/"
   xmlns:rdf="http://www.w3.org/1999/02/22-rdf-syntax-ns#"
   xmlns:svg="http://www.w3.org/2000/svg"
   xmlns="http://www.w3.org/2000/svg"
   xmlns:sodipodi="http://sodipodi.sourceforge.net/DTD/sodipodi-0.dtd"
   xmlns:inkscape="http://www.inkscape.org/namespaces/inkscape"
   version="1.0"
   id="Ebene_1"
   width="341"
   height="340.996"
   viewBox="0 0 331.801 340.996"
   overflow="visible"
   enable-background="new 0 0 331.801 340.996"
   xml:space="preserve"
   sodipodi:version="0.32"
   inkscape:version="0.45"
   sodipodi:docname="S-Bahn-Logo.svg"
   sodipodi:docbase="C:\Dokumente und Einstellungen\Stephan\Eigene Dateien\Wikipedia"
   inkscape:output_extension="org.inkscape.output.svg.inkscape"
   sodipodi:modified="true"><sodipodi:namedview
   inkscape:window-height="746"
   inkscape:window-width="963"
   inkscape:pageshadow="2"
   inkscape:pageopacity="0.0"
   guidetolerance="10.0"
   gridtolerance="10.0"
   objecttolerance="10.0"
   borderopacity="1.0"
   bordercolor="#666666"
   pagecolor="#ffffff"
   id="base"
   inkscape:zoom="1.1085174"
   inkscape:cx="165.9005"
   inkscape:cy="166.7723"
   inkscape:window-x="44"
   inkscape:window-y="0"
   inkscape:current-layer="g3"
   width="341px"
   height="340.996px" /><metadata
   id="metadata20"><rdf:RDF><cc:Work
       rdf:about=""><dc:format>image/svg+xml</dc:format><dc:type
         rdf:resource="http://purl.org/dc/dcmitype/StillImage" /></cc:Work></rdf:RDF></metadata><defs
   id="defs18" />
<g
   id="g3">
	<path
   d="M 166.80111,335.58336 C 75.301106,335.58336 0.90210584,261.18436 0.90210584,169.68336 C 0.90210584,78.183365 75.301106,3.783365 166.80111,3.783365 C 258.30211,3.783365 332.70211,78.183365 332.70211,169.68336 C 332.70311,261.18436 258.30211,335.58336 166.80111,335.58336 z "
   id="path2237"
   style="fill:#f4f4f4;fill-opacity:1"
   sodipodi:nodetypes="csscc" /><path
   id="path5"
   d="M 166.80111,335.58336 C 75.301106,335.58336 0.90210584,261.18436 0.90210584,169.68336 C 0.90210584,78.183365 75.301106,3.783365 166.80111,3.783365 C 258.30211,3.783365 332.70211,78.183365 332.70211,169.68336 C 332.70311,261.18436 258.30211,335.58336 166.80111,335.58336 z M 124.80111,96.183365 C 124.80111,81.783365 138.00111,69.483365 161.10211,69.483365 C 201.90211,69.483365 236.70211,91.383365 259.80211,116.28336 L 259.80211,72.783365 C 233.10211,52.083365 199.50111,39.783365 162.00111,39.783365 C 117.00111,39.783365 66.901106,67.384365 66.901106,118.68336 C 66.901106,216.48436 215.40111,181.38436 215.40111,238.08336 C 215.40111,253.08436 195.60111,267.18436 171.00111,267.18436 C 130.80111,267.18436 90.901106,242.88436 69.001106,211.38436 L 69.001106,263.58436 C 92.101106,284.28436 134.40111,300.78436 171.00111,300.78436 C 236.70111,300.78436 275.70211,253.98336 275.70211,213.78336 C 275.70311,114.18336 124.80111,156.78236 124.80111,96.183365 z "
   style="fill:#252525;fill-opacity:1" />
</g>

</svg>